<svg xmlns="http://www.w3.org/2000/svg" width="24" height="24" viewBox="0 0 24 24">
  <path d="M12 15a3 3 0 1 1 0-6 3 3 0 0 1 0 6z" fill="currentColor"/>
  <path d="M19.4 13l-1.2 2.1 1.2 2.1c.1.2.1.4 0 .6l-2 3.5c-.1.2-.3.3-.5.3h-2.4l-1.2 2.1c-.1.2-.3.3-.5.3h-4c-.2 0-.4-.1-.5-.3l-1.2-2.1H4.7c-.2 0-.4-.1-.5-.3l-2-3.5c-.1-.2-.1-.4 0-.6l1.2-2.1L2.2 13c-.1-.2-.1-.4 0-.6l2-3.5c.1-.2.3-.3.5-.3h2.4l1.2-2.1c.1-.2.3-.3.5-.3h4c.2 0 .4.1.5.3L14.5 9h2.4c.2 0 .4.1.5.3l2 3.5c.1.2.1.4 0 .6z" fill="none" stroke="currentColor" stroke-width="2"/>
</svg>
